<?xml version="1.0" encoding="utf-8"?>
<!-- Generator: Adobe Illustrator 22.0.1, SVG Export Plug-In . SVG Version: 6.00 Build 0)  -->
<svg version="1.1" id="Layer_1" xmlns="http://www.w3.org/2000/svg" xmlns:xlink="http://www.w3.org/1999/xlink" x="0px" y="0px"
	 viewBox="0 0 164 40" style="enable-background:new 0 0 164 40;" xml:space="preserve">
<style type="text/css">
	.st0{fill:#4D4D4D;}
	.st1{fill:#25C16F;}
	.st2{fill:#CECE24;}
	.st3{fill:#FFFFFF;}
	.st4{fill:#BCBC26;stroke:#BCBC26;stroke-linecap:round;stroke-miterlimit:10;}
	.st5{fill:#fff;stroke:#fff;stroke-width:0.5;stroke-miterlimit:10;}
	.st6{fill:#BCBC26;}
</style>
<g>
	<path class="st5" d="M47.6,7.5c-2.9,0-5,1-6.3,3c-0.1,0.2-0.2,0.4-0.2,0.6c0,0.3,0.1,0.6,0.3,0.8c0.2,0.2,0.5,0.3,0.8,0.3
		c0.3,0,0.7-0.2,1-0.5c1.1-1.3,2.6-1.9,4.4-1.9c1.4,0,2.5,0.4,3.3,1.1s1.2,1.8,1.2,3.1v1h-5.4c-2.1,0-3.7,0.5-4.9,1.4
		c-1.2,1-1.8,2.3-1.8,3.9c0,1.7,0.6,3.1,1.8,4c1.2,0.9,2.8,1.4,4.8,1.4c1.2,0,2.3-0.2,3.3-0.7c1-0.5,1.7-1.2,2.2-2v1.4
		c0,0.3,0.1,0.6,0.3,0.8c0.2,0.2,0.5,0.3,0.8,0.3c0.3,0,0.6-0.1,0.8-0.3c0.2-0.2,0.3-0.5,0.3-0.8V13.9c0-2-0.6-3.5-1.8-4.7
		C51.5,8.1,49.8,7.5,47.6,7.5z M52.1,18.7c0,1.5-0.5,2.7-1.5,3.6c-1,0.9-2.2,1.3-3.7,1.3c-2.9,0-4.3-1.1-4.3-3.2
		c0-1.1,0.4-1.9,1.1-2.4c0.7-0.5,1.8-0.8,3.1-0.8h5.4V18.7z"/>
	<path class="st5" d="M66.6,7.5c-1.2,0-2.2,0.3-3.2,0.8c-0.9,0.5-1.6,1.2-2,1.9V8.9c0-0.3-0.1-0.6-0.4-0.9c-0.2-0.2-0.5-0.4-0.9-0.4
		c-0.3,0-0.6,0.1-0.9,0.4C59.2,8.3,59,8.6,59,8.9v22.8c0,0.3,0.1,0.6,0.4,0.9c0.2,0.2,0.5,0.4,0.9,0.4c0.3,0,0.6-0.1,0.9-0.4
		c0.2-0.2,0.4-0.5,0.4-0.9v-8.6c0.5,0.7,1.1,1.4,2,1.9c0.9,0.5,1.9,0.8,3.1,0.8c2.5,0,4.5-0.8,5.9-2.3c1.4-1.5,2.1-3.8,2.1-6.9
		s-0.7-5.3-2.1-6.8C71.1,8.2,69.2,7.5,66.6,7.5z M66.6,23.6c-1.6,0-2.8-0.6-3.8-1.7c-1-1.2-1.4-2.9-1.4-5.2c0-2.3,0.5-4.1,1.4-5.2
		c1-1.1,2.2-1.7,3.7-1.7c3.7,0,5.5,2.3,5.5,6.9C72.1,21.2,70.3,23.6,66.6,23.6z"/>
	<path class="st5" d="M86,7.5c-1.2,0-2.2,0.3-3.2,0.8c-0.9,0.5-1.6,1.2-2,1.9V8.9c0-0.3-0.1-0.6-0.4-0.9c-0.2-0.2-0.5-0.4-0.9-0.4
		c-0.3,0-0.6,0.1-0.9,0.4c-0.2,0.2-0.4,0.5-0.4,0.9v22.8c0,0.3,0.1,0.6,0.4,0.9c0.2,0.2,0.5,0.4,0.9,0.4c0.3,0,0.6-0.1,0.9-0.4
		c0.2-0.2,0.4-0.5,0.4-0.9v-8.6c0.5,0.7,1.1,1.4,2,1.9c0.9,0.5,1.9,0.8,3.1,0.8c2.5,0,4.5-0.8,5.9-2.3c1.4-1.5,2.1-3.8,2.1-6.9
		s-0.7-5.3-2.1-6.8C90.5,8.2,88.5,7.5,86,7.5z M86,23.6c-1.6,0-2.8-0.6-3.8-1.7c-1-1.2-1.4-2.9-1.4-5.2c0-2.3,0.5-4.1,1.4-5.2
		c1-1.1,2.2-1.7,3.7-1.7c3.7,0,5.5,2.3,5.5,6.9C91.5,21.2,89.6,23.6,86,23.6z"/>
	<path class="st5" d="M105.2,7.5c-1.2,0-2.2,0.3-3.1,0.8c-0.9,0.5-1.5,1.1-1.9,1.9V8.9c0-0.4-0.1-0.6-0.4-0.9
		c-0.2-0.2-0.5-0.3-0.9-0.3c-0.3,0-0.6,0.1-0.9,0.3c-0.2,0.2-0.4,0.5-0.4,0.9v15.4c0,0.4,0.1,0.6,0.4,0.9c0.2,0.2,0.5,0.3,0.9,0.3
		c0.3,0,0.6-0.1,0.9-0.3c0.2-0.2,0.4-0.5,0.4-0.9V15c0-3.5,1.7-5.3,5.1-5.3c1.7,0,2.9,0.4,3.6,1.3c0.7,0.9,1,2.1,1,3.8v9.7
		c0,0.4,0.1,0.6,0.3,0.9c0.2,0.2,0.5,0.3,0.9,0.3c0.4,0,0.6-0.1,0.9-0.3c0.2-0.2,0.3-0.5,0.3-0.9V14.2
		C112.2,9.7,109.9,7.5,105.2,7.5z"/>
	<path class="st5" d="M117.9,1.2c-1,0-1.4,0.5-1.4,1.5c0,1,0.5,1.4,1.4,1.4c1,0,1.4-0.5,1.4-1.4C119.4,1.7,118.9,1.2,117.9,1.2z"/>
	<path class="st5" d="M117.9,7.7c-0.4,0-0.6,0.1-0.9,0.3c-0.2,0.2-0.3,0.5-0.3,0.9v15.4c0,0.4,0.1,0.6,0.3,0.9
		c0.2,0.2,0.5,0.3,0.9,0.3c0.4,0,0.6-0.1,0.9-0.3c0.2-0.2,0.3-0.5,0.3-0.9V8.9c0-0.4-0.1-0.6-0.3-0.9C118.6,7.8,118.3,7.7,117.9,7.7
		z"/>
	<path class="st5" d="M131.6,7.5c-1.2,0-2.2,0.3-3.1,0.8c-0.9,0.5-1.5,1.1-1.9,1.9V8.9c0-0.4-0.1-0.6-0.4-0.9
		c-0.2-0.2-0.5-0.3-0.9-0.3c-0.3,0-0.6,0.1-0.9,0.3c-0.2,0.2-0.4,0.5-0.4,0.9v15.4c0,0.4,0.1,0.6,0.4,0.9c0.2,0.2,0.5,0.3,0.9,0.3
		c0.3,0,0.6-0.1,0.9-0.3c0.2-0.2,0.4-0.5,0.4-0.9V15c0-3.5,1.7-5.3,5.1-5.3c1.7,0,2.9,0.4,3.6,1.3c0.7,0.9,1,2.1,1,3.8v9.7
		c0,0.4,0.1,0.6,0.3,0.9c0.2,0.2,0.5,0.3,0.9,0.3c0.4,0,0.6-0.1,0.9-0.3c0.2-0.2,0.3-0.5,0.3-0.9V14.2
		C138.6,9.7,136.2,7.5,131.6,7.5z"/>
	<path class="st5" d="M144.3,1.2c-1,0-1.4,0.5-1.4,1.5c0,1,0.5,1.4,1.4,1.4c1,0,1.4-0.5,1.4-1.4C145.8,1.7,145.3,1.2,144.3,1.2z"/>
	<path class="st5" d="M144.3,7.7c-0.3,0-0.6,0.1-0.9,0.3c-0.2,0.2-0.4,0.5-0.4,0.9v17.7c0,1-0.3,1.8-0.9,2.4c-0.6,0.7-1.3,1-2.2,1
		c-0.3,0-0.6,0.1-0.8,0.3c-0.2,0.2-0.3,0.5-0.3,0.8s0.1,0.6,0.3,0.8c0.2,0.2,0.5,0.3,0.8,0.3c1.6,0,2.9-0.5,4-1.6
		c1.1-1.1,1.6-2.4,1.6-4.1V8.9c0-0.4-0.1-0.6-0.4-0.9C145,7.8,144.7,7.7,144.3,7.7z"/>
	<path class="st5" d="M161.9,9.2c-1.2-1.2-2.9-1.7-5.1-1.7c-2.9,0-5,1-6.3,3c-0.1,0.2-0.2,0.4-0.2,0.6c0,0.3,0.1,0.6,0.3,0.8
		c0.2,0.2,0.5,0.3,0.8,0.3c0.3,0,0.7-0.2,1-0.5c1.1-1.3,2.6-1.9,4.4-1.9c1.4,0,2.5,0.4,3.3,1.1s1.2,1.8,1.2,3.1v1H156
		c-2.1,0-3.7,0.5-4.9,1.4c-1.2,1-1.8,2.3-1.8,3.9c0,1.7,0.6,3.1,1.8,4c1.2,0.9,2.8,1.4,4.8,1.4c1.2,0,2.3-0.2,3.3-0.7
		c1-0.5,1.7-1.2,2.2-2v1.4c0,0.3,0.1,0.6,0.3,0.8c0.2,0.2,0.5,0.3,0.8,0.3c0.3,0,0.6-0.1,0.8-0.3c0.2-0.2,0.3-0.5,0.3-0.8V13.9
		C163.7,12,163.1,10.4,161.9,9.2z M161.3,18.7c0,1.5-0.5,2.7-1.5,3.6c-1,0.9-2.2,1.3-3.7,1.3c-2.9,0-4.3-1.1-4.3-3.2
		c0-1.1,0.4-1.9,1.1-2.4c0.7-0.5,1.8-0.8,3.1-0.8h5.4V18.7z"/>
</g>
<g>
	<path class="st2" d="M17,38L17,38C7.6,38,0,30.4,0,21v0c0-9.4,7.6-17,17-17h12.8c2.4,0,4.3,1.9,4.3,4.3V21C34.1,30.4,26.5,38,17,38
		z"/>
</g>
<g>
	<path class="st3" d="M22.9,27.9h-11c-1.1,0-2-0.9-2-2v-10c0-1.1,0.9-2,2-2h11c1.1,0,2,0.9,2,2v10C24.9,27,24,27.9,22.9,27.9z"/>
</g>
<g>
	<g>
		<path class="st6" d="M22.4,17.8h-10c-0.3,0-0.5-0.2-0.5-0.5s0.2-0.5,0.5-0.5h10c0.3,0,0.5,0.2,0.5,0.5S22.7,17.8,22.4,17.8z"/>
	</g>
	<g>
		<path class="st6" d="M22.4,20.8h-10c-0.3,0-0.5-0.2-0.5-0.5s0.2-0.5,0.5-0.5h10c0.3,0,0.5,0.2,0.5,0.5S22.7,20.8,22.4,20.8z"/>
	</g>
	<g>
		<path class="st6" d="M17.4,23.8h-5c-0.3,0-0.5-0.2-0.5-0.5s0.2-0.5,0.5-0.5h5c0.3,0,0.5,0.2,0.5,0.5S17.7,23.8,17.4,23.8z"/>
	</g>
</g>
</svg>
