<svg xmlns="http://www.w3.org/2000/svg" width="259" height="217" viewBox="0 0 259 217">
    <g fill="none" fill-rule="evenodd">
        <path fill="#FFF" d="M0 217h259V0H0z"/>
        <path fill="#556080" d="M34 37h186V15H34z"/>
        <path fill="#ECF0F1" d="M41 172h174V34H41z"/>
        <path fill="#8697CB" d="M147.305 155.497a3.22 3.22 0 0 1-3.235-3.22v-9.641c0-1.773 1.45-3.22 3.235-3.22 1.78 0 3.234 1.447 3.234 3.22v9.64a3.222 3.222 0 0 1-3.234 3.221"/>
        <path fill="#F3D55B" d="M160.22 155.497a3.222 3.222 0 0 1-3.233-3.22v-22.503a3.232 3.232 0 0 1 3.234-3.22 3.232 3.232 0 0 1 3.234 3.22v22.503a3.222 3.222 0 0 1-3.234 3.22"/>
        <path fill="#8697CB" d="M173.137 155.497a3.222 3.222 0 0 1-3.234-3.22v-16.082c0-1.773 1.454-3.2 3.234-3.2 1.785 0 3.234 1.427 3.234 3.2v16.082a3.22 3.22 0 0 1-3.234 3.22"/>
        <path fill="#71C285" d="M186.053 155.497a3.205 3.205 0 0 1-3.214-3.22v-38.584a3.215 3.215 0 0 1 3.214-3.22c1.801 0 3.234 1.443 3.234 3.22v38.584a3.209 3.209 0 0 1-3.234 3.22"/>
        <path fill="#8697CB" d="M198.99 155.497c-1.801 0-3.234-2.508-3.234-5.66v-45.214c0-3.116 1.433-5.66 3.234-5.66 1.78 0 3.213 2.544 3.213 5.66v45.213c0 3.153-1.433 5.661-3.213 5.661"/>
        <path fill="#D1D4D1" d="M95.62 139.415h-32.3a3.222 3.222 0 0 1-3.235-3.22c0-1.773 1.454-3.2 3.234-3.2h32.3c1.781 0 3.235 1.427 3.235 3.2a3.222 3.222 0 0 1-3.234 3.22M111.77 152.277H63.32c-1.782 0-3.235-1.427-3.235-3.2a3.221 3.221 0 0 1 3.234-3.22h48.451a3.222 3.222 0 0 1 3.234 3.22c0 1.773-1.454 3.2-3.234 3.2"/>
        <path fill="#26B99A" d="M127.92 83.13c0 18.658-15.19 33.783-33.907 33.783-18.738 0-33.928-15.125-33.928-33.784 0-18.642 15.19-33.764 33.928-33.764 18.718 0 33.907 15.122 33.907 33.764"/>
        <path fill="#F3D55B" d="M92.434 49.398l-.048.044V84.62c0 .064.048.129.125.129h35.329l.048-.049c.9-19.897-15.488-36.2-35.454-35.303"/>
        <path fill="#D1D4D1" d="M182.84 67.924h-25.853c-1.78 0-3.234-1.427-3.234-3.2a3.221 3.221 0 0 1 3.234-3.22h25.852a3.204 3.204 0 0 1 3.214 3.22 3.2 3.2 0 0 1-3.214 3.2M198.99 67.924a3.41 3.41 0 0 1-2.306-.924 3.356 3.356 0 0 1-.928-2.276c0-.848.347-1.68.928-2.296 1.2-1.194 3.392-1.194 4.59 0 .582.616.93 1.448.93 2.296 0 .832-.348 1.665-.93 2.276-.613.579-1.449.924-2.284.924M198.99 51.842h-9.703c-1.78 0-3.234-1.427-3.234-3.2a3.221 3.221 0 0 1 3.234-3.22h9.703a3.204 3.204 0 0 1 3.213 3.22 3.2 3.2 0 0 1-3.213 3.2M163.455 51.842h-6.468c-1.78 0-3.234-1.427-3.234-3.2a3.222 3.222 0 0 1 3.234-3.22h6.468a3.222 3.222 0 0 1 3.234 3.22c0 1.773-1.454 3.2-3.234 3.2M176.371 51.842a3.351 3.351 0 0 1-2.285-.924c-.586-.611-.95-1.444-.95-2.276 0-.848.364-1.68.95-2.295 1.183-1.195 3.387-1.195 4.57 0 .586.614.95 1.415.95 2.295 0 .832-.364 1.665-.95 2.276-.613.579-1.45.924-2.285.924"/>
        <path fill="#556080" d="M221.588 171.58H34.253a3.219 3.219 0 0 1-3.234-3.221c0-1.773 1.45-3.2 3.234-3.2h187.335c1.785 0 3.234 1.427 3.234 3.2a3.22 3.22 0 0 1-3.234 3.22"/>
        <path fill="#556080" d="M127.92 181.24c-1.78 0-3.234-1.447-3.234-3.22v-9.661c0-1.773 1.454-3.2 3.234-3.2s3.234 1.427 3.234 3.2v9.66c0 1.774-1.453 3.221-3.234 3.221"/>
        <path fill="#556080" d="M127.92 184.44c-3.565 0-6.468 2.891-6.468 6.441s2.903 6.44 6.468 6.44c3.566 0 6.468-2.89 6.468-6.44 0-3.55-2.902-6.44-6.468-6.44m0 19.301c-7.13 0-12.916-5.76-12.916-12.86 0-7.101 5.786-12.862 12.916-12.862 7.13 0 12.917 5.76 12.917 12.861 0 7.1-5.787 12.861-12.917 12.861"/>
        <path fill="#F3705A" d="M166.405 79.052l-2.36.208c-.38-2.255-2.074-3.505-4.32-3.505-2.797 0-4.72 1.99-4.72 5.268 0 3.43 2.075 5.268 4.74 5.268 2.226 0 3.9-1.194 4.3-3.373l2.379.208c-.552 3.222-3.216 5.174-6.604 5.174-4.072 0-7.117-2.691-7.117-7.277 0-4.605 3.007-7.277 7.098-7.277 3.388 0 6.128 2.009 6.604 5.306M174.283 80.682c1.35 0 2.436-.777 2.436-2.37 0-1.61-1.085-2.387-2.436-2.387h-3.216v4.757h3.216zm-.058 2.008h-3.14v5.42h-2.264V73.936h5.747c2.57 0 4.472 1.515 4.472 4.377 0 2.047-.97 3.392-2.455 3.999l3.197 5.798h-2.55l-3.007-5.42zM195.215 88.11v-9.115l-4.7 9.001h-1.485l-4.72-9.001v9.115h-2.264V73.936h1.998l5.728 10.763 5.71-10.763h1.979V88.11z"/>
        <path fill="#54C0EB" d="M182.267 97.432l2.947 2.934-20.734 20.62-6.315-6.289-18.365 18.288h6.657l11.708-11.659 6.315 6.261 24.049-23.92 3.157 3.144 2.684-12.052z"/>
        <path fill="#FFF" d="M113.435 20.786l-1.965.113c-.064-1.212-.957-1.956-2.321-1.956-1.478 0-2.258.776-2.258 1.81 0 1.214.942 1.488 2.696 1.892 2.55.615 4.157 1.343 4.157 3.477 0 2.49-1.981 3.573-4.384 3.573-2.663 0-4.645-1.31-4.726-3.67l1.965-.113c.081 1.293 1.234 2.118 2.76 2.118 1.397 0 2.42-.517 2.42-1.779 0-1.212-1.055-1.536-2.907-1.972-2.175-.534-3.961-1.148-3.961-3.46 0-1.908 1.38-3.541 4.205-3.541 2.484 0 4.238 1.293 4.32 3.508M122.43 25.12l-1.965-4.706-1.98 4.706h3.945zm1.851 4.414l-1.12-2.7h-5.424l-1.136 2.7h-2.111l5.131-12.095h1.64l5.148 12.095h-2.128zM135.663 27.82v1.714h-7.68V17.439h1.932v10.38zM139.51 19.137v3.33h4.985v1.666h-4.985v3.687h5.7v1.714h-7.633V17.439h7.633v1.698zM155.535 20.786l-1.964.113c-.065-1.212-.958-1.956-2.322-1.956-1.478 0-2.257.776-2.257 1.81 0 1.214.941 1.488 2.695 1.892 2.55.615 4.157 1.343 4.157 3.477 0 2.49-1.981 3.573-4.384 3.573-2.663 0-4.644-1.31-4.726-3.67l1.965-.113c.081 1.293 1.234 2.118 2.76 2.118 1.397 0 2.42-.517 2.42-1.779 0-1.212-1.055-1.536-2.907-1.972-2.175-.534-3.961-1.148-3.961-3.46 0-1.908 1.38-3.541 4.205-3.541 2.485 0 4.238 1.293 4.32 3.508"/>
        <path fill="#71C285" d="M153.223 113.307c-2.005 0-3.64-1.625-3.64-3.625 0-.4.327-.722.728-.722.403 0 .73.322.73.722 0 1.2.98 2.177 2.182 2.177.643 0 1.255-.284 1.67-.772.186-.22.271-.506.243-.803a1.203 1.203 0 0 0-.455-.81l-3.808-2.95a2.648 2.648 0 0 1-1.005-1.805 2.474 2.474 0 0 1 .575-1.887 3.64 3.64 0 0 1 2.78-1.284c2.008 0 3.64 1.628 3.64 3.624 0 .4-.323.726-.724.726a.728.728 0 0 1-.73-.726c0-1.2-.98-2.173-2.186-2.173-.644 0-1.252.28-1.667.771-.185.22-.274.503-.242.8.036.319.2.613.456.81l3.806 2.95c.565.439.932 1.097 1.007 1.805a2.506 2.506 0 0 1-.576 1.89 3.657 3.657 0 0 1-2.784 1.282"/>
        <path fill="#71C285" d="M153.223 114.595a.721.721 0 0 1-.725-.721v-13.052c0-.4.323-.726.725-.726.402 0 .729.326.729.726v13.052c0 .399-.327.72-.73.72"/>
        <path fill="#FFF" d="M81.127 106.47c-5.02 0-9.116-4.07-9.116-9.079 0-1.003.82-1.808 1.825-1.808 1.008 0 1.826.805 1.826 1.808 0 3.005 2.457 5.452 5.465 5.452 1.612 0 3.143-.71 4.185-1.934.465-.549.677-1.266.606-2.01a3.013 3.013 0 0 0-1.14-2.032l-9.535-7.385a6.632 6.632 0 0 1-2.519-4.52 6.198 6.198 0 0 1 1.443-4.726 9.12 9.12 0 0 1 6.96-3.218c5.03 0 9.117 4.078 9.117 9.078 0 1-.809 1.818-1.814 1.818a1.824 1.824 0 0 1-1.826-1.818c0-3.005-2.457-5.442-5.477-5.442a5.45 5.45 0 0 0-4.175 1.93 2.644 2.644 0 0 0-.604 2.005 2.99 2.99 0 0 0 1.14 2.03l9.533 7.384a6.64 6.64 0 0 1 2.521 4.523c.178 1.737-.33 3.411-1.442 4.732a9.16 9.16 0 0 1-6.973 3.212"/>
        <path fill="#FFF" d="M81.127 109.695a1.807 1.807 0 0 1-1.814-1.807V75.2c0-1.001.81-1.818 1.814-1.818 1.008 0 1.826.817 1.826 1.818v32.688a1.815 1.815 0 0 1-1.826 1.807"/>
    </g>
</svg>
