<svg xmlns="http://www.w3.org/2000/svg" width="260" height="207" viewBox="0 0 260 207">
    <g fill="none" fill-rule="evenodd">
        <path fill="#FFF" d="M0 207h260V0H0z"/>
        <path fill="#646B79" d="M19 44h195V25H19z"/>
        <path fill="#FBD303" d="M24 44h4V25h-4zM205 44h4V25h-4z"/>
        <path fill="#E6E6E6" d="M31.317 43.774v105.415c0 4.17 3.335 7.507 7.673 7.507h152.972c4.17 0 7.675-3.336 7.675-7.507V43.774H31.317z"/>
        <path fill="#F0BA7A" d="M175.948 150.191h21.854v-16.014h-21.854z"/>
        <path fill="#4F5565" d="M211.48 109.492c0 13.634-11.053 24.685-24.688 24.685-13.635 0-24.69-11.051-24.69-24.685 0-13.633 11.055-24.685 24.69-24.685 13.635 0 24.688 11.052 24.688 24.685"/>
        <path fill="#DEDEDF" d="M172.611 144.52l14.181.834 14.178-.833-3.168 46.202h-21.854z"/>
        <path fill="#F0582F" d="M183.622 155.195l-4.171 26.354 7.341 9.174 7.507-9.174-4.173-26.354z"/>
        <path fill="#4F5565" d="M172.611 144.52c-.999.335-32.194 14.345-32.194 14.345l-7.508 31.858h54.049L172.61 144.52z"/>
        <path fill="#646B79" d="M172.611 144.52l-6.339 2.835-9.508 14.678 9.008 2.837-8.006 9.34 18.182 16.513h10.844z"/>
        <path fill="#4F5565" d="M201.138 144.52c1 .335 32.196 14.345 32.196 14.345l7.507 31.858h-54.049l14.346-46.202z"/>
        <path fill="#646B79" d="M201.138 144.52l6.172 2.835 9.676 14.678-9.008 2.837 8.007 9.34-18.183 16.513h-11.01z"/>
        <path fill="#D54232" d="M188.46 145.354h-3.338l-5.671 5.671 4.17 4.17h6.505l4.173-4.17z"/>
        <path fill="#F1F3F7" d="M172.611 144.52l3.003-5.34 11.178 6.174-8.175 10.843zM200.97 144.52l-3.002-5.34-11.176 6.174 8.173 10.843z"/>
        <path fill="#4F5565" d="M170.108 108.824s17.35 1.002 24.69-9.675c0 0 2.17 6.339 8.176 8.676v8.674h3.002c0-.836.166-1.67.166-2.503 0-14.01-8.508-25.187-19.016-25.187-10.51 0-19.019 11.342-19.019 25.187 0 .834 0 1.667.168 2.503h2.167v-7.675h-.334z"/>
        <path fill="#F7CFA2" d="M202.806 116.499v-8.674c-6.006-2.502-8.175-8.676-8.175-8.676-7.34 10.677-24.689 9.675-24.689 9.675v7.672h-2.169c1.002 12.844 9.009 22.685 19.02 22.685 9.841 0 18.014-10.006 19.016-22.685l-3.003.003z"/>
        <path fill="#F0582F" d="M136.246 63.122v6.17h13.345l-25.023 25.022-10.344-10.343-24.522 24.52-20.018-20.016-29.027 28.858 4.504 4.335 24.523-24.52 20.018 20.016 24.522-24.52 10.344 10.344 29.36-29.357v13.343h6.172V63.122z"/>
        <path fill="#F0C419" d="M84.115 133.928h16.56c-.607-8.867-7.692-15.953-16.56-16.557v16.557z"/>
        <path fill="#71C285" d="M95.989 147.245a17.762 17.762 0 0 0 4.685-10.858H85.133l10.856 10.858z"/>
        <path fill="#556080" d="M81.656 136.387v-19.016c-9.277.634-16.608 8.35-16.608 17.788 0 9.85 7.986 17.834 17.836 17.834 4.3 0 8.24-1.526 11.319-4.06l-12.547-12.546z"/>
        <path fill="#6EB1E1" d="M108.512 127.3h34.563V124h-34.563zM108.512 133.928h26.006v-3.298h-26.006zM108.512 140.183h14.262v-3.298h-14.262z"/>
        <path fill="#71C285" d="M179.47 77.588c-4.369 0-7.933-3.556-7.933-7.933 0-.877.714-1.58 1.589-1.58.876 0 1.589.703 1.589 1.58a4.768 4.768 0 0 0 4.756 4.764 4.78 4.78 0 0 0 3.64-1.69c.405-.48.59-1.107.528-1.757a2.635 2.635 0 0 0-.991-1.775l-8.299-6.453a5.802 5.802 0 0 1-2.191-3.95 5.433 5.433 0 0 1 1.256-4.13 7.92 7.92 0 0 1 6.057-2.811c4.377 0 7.933 3.563 7.933 7.932 0 .875-.704 1.589-1.579 1.589a1.59 1.59 0 0 1-1.588-1.589 4.764 4.764 0 0 0-8.4-3.068c-.403.48-.595 1.101-.526 1.752.078.696.435 1.34.992 1.773l8.297 6.452a5.81 5.81 0 0 1 2.193 3.953 5.498 5.498 0 0 1-1.255 4.134 7.956 7.956 0 0 1-6.067 2.807"/>
        <path fill="#71C285" d="M179.47 80.406a1.575 1.575 0 0 1-1.578-1.579V50.264c0-.874.704-1.588 1.579-1.588a1.59 1.59 0 0 1 1.588 1.588v28.563c0 .875-.712 1.579-1.588 1.579"/>
    </g>
</svg>
