<svg xmlns="http://www.w3.org/2000/svg" width="259" height="195" viewBox="0 0 259 195">
    <g fill="none" fill-rule="evenodd">
        <path fill="#FFF" d="M0 195h259V0H0z"/>
        <path fill="#666" d="M41.458 17.01h175.083c5.753 0 10.46 4.725 10.46 10.5V135.79H31V27.51c0-5.775 4.705-10.5 10.457-10.5"/>
        <path fill="#21D0C3" d="M38.102 128.663H219.9V27.51c0-1.84-1.525-3.37-3.357-3.37H41.46c-1.833 0-3.357 1.53-3.357 3.37v101.152z"/>
        <path fill="#E6E6E6" d="M227 135.792v11.483c0 5.777-5.188 10.5-11.53 10.5H42.53c-6.342 0-11.53-4.723-11.53-10.5v-11.483h196z"/>
        <path fill="#FFF" d="M62.327 35.947h153.198c2.406 0 4.373 1.627 4.373 3.615v89.1H38.102V39.561c0-1.988 1.968-3.614 4.374-3.614h19.85z"/>
        <path fill="#B6B6B8" d="M129 142.71c1.989 0 3.601 1.618 3.601 3.614a3.608 3.608 0 0 1-3.6 3.615 3.608 3.608 0 0 1-3.601-3.615 3.608 3.608 0 0 1 3.6-3.615"/>
        <path fill="#C2C2C4" d="M151.605 174.294l16.63 5.35h-78.47l13.418-5.35v-16.518h48.422z"/>
        <path fill="#B6B6B8" d="M151.605 174.294l-48.422-16.518h48.422z"/>
        <path fill="#CCC" d="M103.183 174.294h48.422l16.63 5.35v2.304H89.765v-2.304z"/>
        <path fill="#FF5B62" d="M193.732 115.724l2.042-4.144 4.431 4.325 1.433-1.48-4.431-4.324 4.067-2.167-11.368-3.52 3.826 11.31z"/>
        <path fill="#AFE5FE" d="M98.557 89.16c-3.488 0-6.315-2.84-6.315-6.34 0-3.502 2.827-6.34 6.315-6.34 3.487 0 6.314 2.838 6.314 6.34 0 3.5-2.827 6.34-6.314 6.34m0-34.346c-15.406 0-27.895 12.539-27.895 28.006 0 15.466 12.489 28.005 27.895 28.005 15.405 0 27.894-12.54 27.894-28.005 0-15.467-12.489-28.006-27.894-28.006"/>
        <path fill="#76D8FD" d="M114.963 60.17a27.95 27.95 0 0 1 5.334 16.472c0 15.466-12.488 28.005-27.893 28.005a27.693 27.693 0 0 1-16.407-5.356c5.072 6.99 13.287 11.533 22.56 11.533 15.405 0 27.893-12.538 27.893-28.005 0-9.31-4.525-17.556-11.487-22.649"/>
        <path fill="#A7AEEE" d="M98.307 118.103h-51.44c-1.1 0-1.992-.896-1.992-2V49.538c0-1.105.892-2.001 1.993-2.001h51.44c1.1 0 1.992.896 1.992 2v66.564c0 1.105-.892 2.001-1.993 2.001"/>
        <path fill="#9EBECC" d="M98.557 89.16c-3.488 0-6.315-2.84-6.315-6.34 0-3.502 2.827-6.34 6.315-6.34 3.487 0 6.314 2.838 6.314 6.34 0 3.5-2.827 6.34-6.314 6.34m0-18.04c-6.437 0-11.654 5.238-11.654 11.7 0 6.461 5.217 11.7 11.654 11.7 6.436 0 11.653-5.239 11.653-11.7 0-6.462-5.217-11.7-11.653-11.7"/>
        <path fill="#8C99E5" d="M98.307 47.538h-6.574v62.466c0 1.105-.892 2-1.993 2H44.875v4.099c0 1.104.892 2 1.993 2h51.44c1.1 0 1.992-.896 1.992-2V49.539c0-1.105-.892-2.001-1.993-2.001"/>
        <path fill="#DFEAEF" d="M72.305 60.17c12.458 0 22.557 10.14 22.557 22.647 0 12.508-10.099 22.648-22.557 22.648-12.458 0-22.558-10.14-22.558-22.648 0-12.507 10.1-22.647 22.558-22.647"/>
        <path fill="#8C99E5" d="M62.653 88.794c-.53.266-1.59.532-2.95.532-3.147 0-5.517-1.996-5.517-5.672 0-3.51 2.37-5.89 5.833-5.89 1.391 0 2.27.3 2.65.5l-.347 1.181c-.547-.266-1.326-.466-2.254-.466-2.618 0-4.357 1.68-4.357 4.625 0 2.744 1.574 4.508 4.29 4.508.88 0 1.774-.183 2.354-.466l.298 1.148zM65.901 83.204h1.475c1.54 0 2.518-.848 2.518-2.129 0-1.447-1.044-2.08-2.568-2.096-.696 0-1.193.067-1.425.133v4.092zm-1.441-5.106c.729-.15 1.772-.233 2.766-.233 1.541 0 2.535.282 3.231.915.564.499.879 1.264.879 2.129 0 1.48-.928 2.462-2.105 2.861v.05c.862.3 1.375 1.098 1.64 2.262.365 1.564.63 2.645.862 3.078h-1.49c-.183-.316-.432-1.281-.747-2.678-.33-1.547-.928-2.13-2.236-2.18H65.9v4.858H64.46V78.098zM82.785 84.236c-.083-1.564-.182-3.444-.165-4.84h-.05a66.779 66.779 0 0 1-1.409 4.258l-1.971 5.439h-1.094l-1.806-5.34c-.53-1.58-.977-3.027-1.292-4.358h-.033a152.357 152.357 0 0 1-.216 4.957l-.298 4.808h-1.375l.778-11.212h1.84l1.905 5.423c.464 1.38.845 2.611 1.127 3.776h.05c.281-1.131.679-2.362 1.176-3.776l1.988-5.423h1.84l.695 11.212h-1.408l-.282-4.924z"/>
        <path fill="#FF5B62" d="M154.564 71.632l-3.778.33c-.492-2.496-2.252-3.816-4.668-3.816-3.074 0-5.115 2.262-5.115 5.842 0 3.816 2.252 5.842 5.138 5.842 2.393 0 4.176-1.296 4.645-3.745l3.801.33c-.68 4.121-4.082 6.642-8.329 6.642-5.138 0-8.939-3.392-8.939-9.069 0-5.7 3.778-9.069 8.916-9.069 4.247 0 7.695 2.544 8.329 6.713M164.37 73.234c1.409 0 2.417-.848 2.417-2.402 0-1.602-1.008-2.45-2.416-2.45h-3.45v4.852h3.45zm-.492 3.227h-2.933v6.337h-3.636v-17.62h7.508c3.331 0 5.654 2.026 5.654 5.654 0 2.45-1.08 4.192-2.815 5.04l3.73 6.926h-4.083l-3.425-6.337zM189.616 82.798V73.28l-4.833 9.328h-2.394l-4.856-9.328v9.517h-3.637v-17.62h3.214l6.476 12.108 6.429-12.108h3.19v17.62zM144.644 91.686v11.36h-2.094v-11.36h-4.68v-1.855h11.455v1.855z"/>
        <path fill="#FF5B62" d="M149.378 107.55l2.217-5.14-3.572-8.427h2.2l2.428 6.2 2.428-6.2h2.2l-5.737 13.568zM160.868 98.293v.477c0 1.785 1.074 2.757 2.552 2.757 1.53 0 2.657-1.078 2.657-3.004s-1.127-2.986-2.657-2.986c-1.478 0-2.552.954-2.552 2.756m7.215.23c0 2.897-1.83 4.7-4.347 4.7-1.354 0-2.375-.548-2.868-1.255v5.583h-1.97V93.983h1.865v1.272c.492-.83 1.566-1.431 2.973-1.431 2.517 0 4.347 1.82 4.347 4.699M171.919 97.71h4.628c-.053-1.307-.792-2.19-2.252-2.19-1.32 0-2.27.777-2.376 2.19zm-.018 1.555c.106 1.378 1.038 2.243 2.411 2.243 1.144 0 1.9-.477 2.147-1.289l1.988.106c-.352 1.608-1.988 2.898-4.082 2.898-2.657 0-4.558-1.767-4.558-4.7 0-2.95 1.883-4.7 4.505-4.7 2.587 0 4.223 1.714 4.223 4.47v.972h-6.634zM187.192 96.703l-1.97.106c-.07-.76-.546-1.29-1.549-1.29-.932 0-1.408.39-1.408 1.008 0 .777.775.848 1.971 1.13 1.866.477 3.115 1.043 3.115 2.668 0 1.82-1.337 2.898-3.537 2.898-2.165 0-3.484-1.096-3.696-2.898l1.972-.124c.105.83.686 1.307 1.76 1.307.897 0 1.53-.353 1.53-1.024 0-.742-.475-.919-1.953-1.272-1.83-.442-3.132-.83-3.132-2.65 0-1.625 1.249-2.738 3.431-2.738 2.147 0 3.29 1.272 3.466 2.88"/>
    </g>
</svg>
